<?xml version="1.0" encoding="UTF-8"?>
<svg id="Layer_1" data-name="Layer 1" xmlns="http://www.w3.org/2000/svg" xmlns:xlink="http://www.w3.org/1999/xlink" viewBox="0 0 2551.18 2948.03">
  <defs>
    <style>
      .cls-1 {
        clip-path: url(#clippath);
      }

      .cls-2, .cls-3 {
        fill: none;
      }

      .cls-2, .cls-4, .cls-5, .cls-6, .cls-7, .cls-8, .cls-9, .cls-10, .cls-11, .cls-12, .cls-13, .cls-14 {
        stroke-width: 0px;
      }

      .cls-3 {
        stroke: #fff;
        stroke-miterlimit: 10;
        stroke-width: 50px;
      }

      .cls-4 {
        fill: #4d4d4d;
      }

      .cls-5 {
        fill: #4575b4;
      }

      .cls-6 {
        fill: #d73027;
      }

      .cls-7 {
        fill: #b8d9e9;
      }

      .cls-8 {
        fill: #7dacd1;
      }

      .cls-9 {
        fill: #fff;
      }

      .cls-10 {
        fill: #fee79b;
      }

      .cls-11 {
        fill: #ffffbf;
      }

      .cls-12 {
        fill: #fdb674;
      }

      .cls-13 {
        fill: #f2754c;
      }

      .cls-14 {
        fill: #e7f6e9;
      }
    </style>
    <clipPath id="clippath">
      <polygon class="cls-2" points="2446.42 798.04 1275.59 122.06 104.76 798.04 104.76 2149.99 1275.59 2825.97 2446.42 2149.99 2446.42 798.04"/>
    </clipPath>
  </defs>
  <polygon class="cls-9" points="2446.42 798.04 1275.59 122.06 104.76 798.04 104.76 2149.99 1275.59 2825.97 2446.42 2149.99 2446.42 798.04"/>
  <path class="cls-4" d="M15.09,2201.79v-19.4s.04-1416.73.04-1416.73l-.09-19.35L1275.63,18.52l1260.46,727.78.04,1455.48-1260.5,727.75-16.8-9.7L31.89,2211.49l-16.8-9.7ZM82.25,785.11l-.04,1377.93,1193.34,688.93,1193.3-688.95.04-1377.93L1275.55,96.16,82.25,785.11Z"/>
  <polygon class="cls-3" points="2446.42 798.04 1275.59 122.06 104.76 798.04 104.76 2149.99 1275.59 2825.97 2446.42 2149.99 2446.42 798.04"/>
  <g class="cls-1">
    <g>
      <rect class="cls-10" x="1059.5" y="2881.44" width="409.71" height="442.37" transform="translate(-1381.92 1047.85) rotate(-30)"/>
      <rect class="cls-12" x="1414.32" y="2676.58" width="409.71" height="442.37" transform="translate(-1231.95 1197.82) rotate(-30)"/>
      <rect class="cls-13" x="1768.93" y="2471.85" width="409.71" height="442.37" transform="translate(-1082.08 1347.69) rotate(-30)"/>
      <rect class="cls-6" x="2123.75" y="2266.99" width="409.71" height="442.37" transform="translate(-932.11 1497.66) rotate(-30)"/>
    </g>
    <g>
      <rect class="cls-5" x="-347.61" y="2071.66" width="409.71" height="442.37" transform="translate(-1165.55 235.81) rotate(-30)"/>
      <rect class="cls-8" x="7" y="1866.93" width="409.71" height="442.37" transform="translate(-1015.67 385.68) rotate(-30)"/>
      <rect class="cls-12" x="1780.9" y="842.77" width="409.71" height="442.37" transform="translate(-265.94 1135.42) rotate(-30)"/>
      <rect class="cls-13" x="2135.51" y="638.04" width="409.71" height="442.37" transform="translate(-116.06 1285.29) rotate(-30)"/>
      <rect class="cls-6" x="2490.33" y="433.18" width="409.71" height="442.37" transform="translate(33.9 1435.26) rotate(-30)"/>
    </g>
    <g>
      <rect class="cls-5" x="-235.23" y="1451.47" width="409.71" height="442.37" transform="translate(-840.39 208.91) rotate(-30)"/>
      <rect class="cls-8" x="119.38" y="1246.74" width="409.71" height="442.37" transform="translate(-690.52 358.78) rotate(-30)"/>
      <rect class="cls-11" x="1183.64" y="632.29" width="409.71" height="442.37" transform="translate(-240.71 808.59) rotate(-30)"/>
      <rect class="cls-10" x="1538.46" y="427.44" width="409.71" height="442.37" transform="translate(-90.75 958.55) rotate(-30)"/>
      <rect class="cls-12" x="1893.28" y="222.58" width="409.71" height="442.37" transform="translate(59.21 1108.52) rotate(-30)"/>
      <rect class="cls-13" x="2247.89" y="17.85" width="409.71" height="442.37" transform="translate(209.09 1258.39) rotate(-30)"/>
      <rect class="cls-6" x="2602.71" y="-187.01" width="409.71" height="442.37" transform="translate(359.05 1408.36) rotate(-30)"/>
    </g>
    <g>
      <rect class="cls-5" x="-119.85" y="829.55" width="409.71" height="442.37" transform="translate(-513.98 183.27) rotate(-30)"/>
      <rect class="cls-8" x="234.76" y="624.82" width="409.71" height="442.37" transform="translate(-364.1 333.15) rotate(-30)"/>
      <rect class="cls-7" x="589.58" y="419.96" width="409.71" height="442.37" transform="translate(-214.14 483.12) rotate(-30)"/>
      <rect class="cls-14" x="944.4" y="215.11" width="409.71" height="442.37" transform="translate(-64.17 633.08) rotate(-30)"/>
      <rect class="cls-11" x="1299.01" y="10.37" width="409.71" height="442.37" transform="translate(85.7 782.96) rotate(-30)"/>
      <rect class="cls-10" x="1653.83" y="-194.48" width="409.71" height="442.37" transform="translate(235.67 932.92) rotate(-30)"/>
      <rect class="cls-12" x="2008.65" y="-399.34" width="409.71" height="442.37" transform="translate(385.63 1082.89) rotate(-30)"/>
    </g>
    <g>
      <rect class="cls-5" x="-464.36" y="2694.37" width="409.71" height="442.37" transform="translate(-1492.54 260.86) rotate(-30)"/>
      <rect class="cls-8" x="-109.75" y="2489.64" width="409.71" height="442.37" transform="translate(-1342.67 410.73) rotate(-30)"/>
      <rect class="cls-7" x="245.07" y="2284.78" width="409.71" height="442.37" transform="translate(-1192.7 560.7) rotate(-30)"/>
      <rect class="cls-14" x="599.9" y="2079.93" width="409.71" height="442.37" transform="translate(-1042.74 710.67) rotate(-30)"/>
      <rect class="cls-11" x="954.51" y="1875.19" width="409.71" height="442.37" transform="translate(-892.86 860.54) rotate(-30)"/>
      <rect class="cls-10" x="1309.33" y="1670.34" width="409.71" height="442.37" transform="translate(-742.9 1010.51) rotate(-30)"/>
      <rect class="cls-12" x="1664.15" y="1465.48" width="409.71" height="442.37" transform="translate(-592.93 1160.47) rotate(-30)"/>
      <rect class="cls-13" x="2018.76" y="1260.75" width="409.71" height="442.37" transform="translate(-443.06 1310.35) rotate(-30)"/>
      <rect class="cls-6" x="2373.58" y="1055.89" width="409.71" height="442.37" transform="translate(-293.09 1460.31) rotate(-30)"/>
    </g>
    <g>
      <rect class="cls-7" x="132.9" y="2904.85" width="409.71" height="442.37" transform="translate(-1517.77 587.69) rotate(-30)"/>
      <rect class="cls-14" x="487.72" y="2700" width="409.71" height="442.37" transform="translate(-1367.8 737.65) rotate(-30)"/>
      <rect class="cls-11" x="842.33" y="2495.26" width="409.71" height="442.37" transform="translate(-1217.93 887.53) rotate(-30)"/>
      <rect class="cls-10" x="1197.15" y="2290.41" width="409.71" height="442.37" transform="translate(-1067.96 1037.49) rotate(-30)"/>
      <rect class="cls-12" x="1551.97" y="2085.55" width="409.71" height="442.37" transform="translate(-918 1187.46) rotate(-30)"/>
      <rect class="cls-13" x="1906.58" y="1880.82" width="409.71" height="442.37" transform="translate(-768.12 1337.33) rotate(-30)"/>
      <rect class="cls-6" x="2261.4" y="1675.96" width="409.71" height="442.37" transform="translate(-618.16 1487.3) rotate(-30)"/>
    </g>
  </g>
  <polygon class="cls-3" points="2446.42 798.04 1275.59 122.06 104.76 798.04 104.76 2149.99 1275.59 2825.97 2446.42 2149.99 2446.42 798.04"/>
  <g>
    <path class="cls-4" d="M596.94,1201.9l22.93-13.24,24.05,41.65,21.54-12.44,11.82,20.48-21.54,12.44,56.22,97.37c3,5.2,6.61,7.76,10.82,7.68,2.35,0,5.59-1.18,9.7-3.56,1.09-.63,2.25-1.34,3.47-2.13s2.6-1.79,4.14-3.01l11.5,19.92c-2.12,2.34-4.48,4.51-7.08,6.5-2.6,2-5.54,3.94-8.81,5.83-10.58,6.11-19.49,7.26-26.73,3.45s-13.62-10.49-19.14-20.06l-57.02-98.76-18.26,10.55-11.82-20.48,18.26-10.54-24.05-41.65Z"/>
    <path class="cls-4" d="M669.02,1141.9l23.05-13.31,16.41,28.42-23.05,13.31-16.41-28.42ZM701.43,1198.03l23.05-13.31,85.73,148.49-23.05,13.31-85.73-148.49Z"/>
    <path class="cls-4" d="M848.01,1118.6c5.62.47,13,2.71,22.12,6.73l-43.51-75.36,21.79-12.58,118.55,205.33-20.41,11.78-11.98-20.76c.04,12.24-2.36,22.48-7.2,30.72-4.84,8.24-11.9,15.04-21.18,20.4-14.97,8.65-31.97,9.15-51,1.49-19.03-7.65-35.24-23.08-48.65-46.3-12.55-21.73-18.42-43.44-17.62-65.14.8-21.7,10.49-37.91,29.06-48.63,10.29-5.94,20.3-8.5,30.03-7.68ZM861.98,1259.68c12.32,7.25,25.21,6.99,38.66-.77,10.44-6.03,16.14-15.98,17.11-29.84.96-13.86-3.95-30.13-14.72-48.8-10.88-18.85-22.41-30.8-34.57-35.85-12.16-5.05-23.34-4.63-33.53,1.25-11.37,6.56-17.79,16.71-19.27,30.44-1.48,13.74,3.19,29.98,14.02,48.74,9.22,15.97,19.99,27.58,32.31,34.84Z"/>
    <path class="cls-4" d="M1011.94,1017.83l25.07-14.47c2.33,11.41,7.84,37.34,16.53,77.79,6.57,30.4,11.76,55.28,15.55,74.64,8.88,45.6,13.04,74.13,12.5,85.58-.55,11.45-7.37,20.96-20.45,28.51-3.19,1.84-5.72,3.12-7.6,3.83s-4.3,1.43-7.24,2.14l-13.19-22.85c4.64-1.07,7.92-1.97,9.84-2.71,1.92-.74,3.55-1.49,4.9-2.27,4.19-2.42,6.83-4.96,7.92-7.63,1.09-2.67,1.66-5.5,1.72-8.5-.01-.98-.7-5.65-2.06-14.01-1.36-8.36-2.42-14.55-3.17-18.56l-138.55-124.78,25.7-14.84,106.31,100.65-33.76-142.54Z"/>
  </g>
  <g>
    <path class="cls-4" d="M436.42,1810.76l22.84-13.18,40.14,69.52c1.46-9.97,3.54-17.6,6.24-22.89,4.58-9.07,12.36-16.78,23.35-23.12,19.71-11.38,37.05-12.2,52.03-2.47,8.15,5.33,16.08,14.68,23.8,28.04l50.32,87.15-23.47,13.55-49.44-85.63c-5.76-9.98-11.25-16.56-16.48-19.75-8.44-5.05-18.37-4.28-29.79,2.31-9.47,5.47-16.18,13.68-20.11,24.64-3.94,10.96-.68,25.48,9.77,43.58l41.6,72.06-22.84,13.18-107.96-186.99Z"/>
    <path class="cls-4" d="M709.51,1726.25c11.61-.67,21.84,1.24,30.7,5.7,8.49,4.23,16.13,10.48,22.92,18.74,4.96,5.48,11.39,15.07,19.3,28.77l-98.82,57.06c8.4,13.58,18.04,22.81,28.9,27.67,10.87,4.86,22.63,3.64,35.3-3.68,11.83-6.83,18.99-16.23,21.48-28.2,1.3-6.86,1.03-13.79-.81-20.77l22.45-12.96c2.29,5.33,3.53,12.03,3.73,20.09.2,8.06-.63,15.22-2.5,21.49-2.98,10.74-8.86,20.23-17.65,28.46-4.68,4.5-10.45,8.74-17.34,12.72-16.81,9.7-34.61,11.78-53.39,6.22-18.79-5.56-34.57-19.42-47.37-41.58-12.6-21.82-16.95-42.93-13.04-63.35,3.9-20.41,15.36-36.1,34.35-47.07,9.58-5.53,20.17-8.63,31.78-9.3ZM748.48,1774.87c-6.64-9.36-13.34-16.03-20.11-20.02-12.55-7.41-26.08-6.93-40.59,1.45-10.4,6-16.93,14.83-19.61,26.46-2.67,11.64-.85,23.41,5.47,35.32l74.85-43.21Z"/>
    <path class="cls-4" d="M884.7,1691.63c4.86-3.7,7.1-7.92,6.73-12.66-.16-2.62-1.35-5.84-3.55-9.66-4.51-7.81-10.55-11.88-18.11-12.21-7.56-.33-16.49,2.48-26.79,8.42-11.9,6.87-18.48,14.98-19.73,24.31-.72,5.18.53,11.54,3.76,19.08l-21.31,12.3c-9.27-17.04-10.59-31.85-3.95-44.45,6.64-12.6,16.84-22.87,30.61-30.82,15.96-9.22,30.69-13.66,44.17-13.32,13.4.38,23.81,7,31.23,19.86l45.19,78.28c1.37,2.37,2.95,3.99,4.75,4.86,1.8.87,4.27.41,7.4-1.4,1.01-.59,2.12-1.31,3.31-2.17,1.2-.86,2.44-1.83,3.73-2.91l9.74,16.87c-2.96,3.07-5.31,5.26-7.02,6.59-1.71,1.33-4.18,2.92-7.39,4.77-7.87,4.54-15.19,5.05-21.96,1.52-3.57-1.88-7.3-5.31-11.18-10.29-1.14,8.78-4.77,17.92-10.89,27.43-6.12,9.51-14.43,17.29-24.92,23.35-12.6,7.28-25.11,9.4-37.51,6.37-12.4-3.03-21.92-10.29-28.56-21.78-7.27-12.58-8.96-24.61-5.1-36.08,3.87-11.47,11.72-21.69,23.56-30.67l33.78-25.58ZM872.23,1781.08c7.01,1.01,13.82-.38,20.41-4.19,8.03-4.64,14.74-10.99,20.12-19.05,9.13-13.49,9.65-27.24,1.55-41.26l-10.6-18.37c-1.76,3.39-4.49,6.95-8.19,10.67-3.7,3.72-7.52,7.06-11.45,10l-12.78,9.74c-7.64,5.87-12.86,11.2-15.66,15.96-4.77,8.04-4.65,16.41.37,25.1,3.8,6.58,9.21,10.38,16.22,11.39Z"/>
    <path class="cls-4" d="M921.06,1548.54l23.09-13.33,21.9,37.93,21.69-12.52,10.77,18.65-21.69,12.52,51.2,88.68c2.73,4.74,6.17,6.98,10.31,6.73,2.31-.09,5.54-1.34,9.69-3.73,1.1-.63,2.27-1.35,3.5-2.13,1.24-.79,2.63-1.78,4.2-2.99l10.47,18.14c-2.18,2.28-4.59,4.4-7.23,6.37-2.64,1.97-5.61,3.91-8.9,5.82-10.66,6.15-19.46,7.6-26.42,4.34s-12.95-9.24-17.98-17.95l-51.93-89.94-18.39,10.62-10.77-18.65,18.39-10.62-21.9-37.93Z"/>
    <path class="cls-4" d="M1023.57,1539.94l22.58-13.04,11.13,19.28c1.55-9.8,3.65-17.5,6.29-23.08,4.55-9.5,11.6-17.01,21.16-22.53,10.83-6.25,21.08-8.62,30.75-7.1,5.48.9,11.45,3.43,17.91,7.59.88-10.2,3.73-19.04,8.55-26.5,4.82-7.46,11.51-13.66,20.05-18.59,18.27-10.55,34.51-11.13,48.72-1.74,7.65,5.05,14.95,13.59,21.88,25.59l52.22,90.45-23.72,13.7-54.49-94.38c-5.22-9.05-11.08-13.96-17.55-14.73-6.48-.77-12.97.72-19.48,4.48-8.96,5.18-14.95,12.63-17.95,22.37-3,9.74-.45,21.63,7.65,35.67l45.63,79.03-23.21,13.4-51.2-88.68c-5.32-9.22-10.3-15.31-14.94-18.27-7.13-4.34-15.43-3.78-24.9,1.69-8.63,4.98-14.54,12.85-17.75,23.61-3.21,10.76.25,24.89,10.36,42.4l41.6,72.06-22.83,13.18-78.44-135.87Z"/>
    <path class="cls-4" d="M1356.77,1419.09c4.85-3.7,7.1-7.92,6.73-12.66-.16-2.62-1.35-5.84-3.55-9.66-4.51-7.81-10.55-11.88-18.11-12.21-7.56-.33-16.49,2.48-26.79,8.42-11.9,6.87-18.48,14.98-19.73,24.31-.72,5.18.53,11.54,3.76,19.08l-21.31,12.3c-9.27-17.04-10.59-31.85-3.95-44.45,6.64-12.6,16.84-22.87,30.61-30.82,15.96-9.22,30.69-13.66,44.17-13.32,13.4.38,23.81,7,31.23,19.86l45.19,78.28c1.37,2.37,2.95,3.99,4.75,4.86,1.8.87,4.27.41,7.4-1.4,1.02-.59,2.12-1.31,3.31-2.17,1.2-.86,2.44-1.83,3.73-2.91l9.74,16.87c-2.97,3.07-5.31,5.26-7.02,6.59-1.71,1.33-4.18,2.92-7.39,4.77-7.87,4.54-15.19,5.05-21.96,1.52-3.57-1.88-7.3-5.31-11.18-10.29-1.14,8.78-4.77,17.92-10.89,27.43-6.13,9.51-14.43,17.29-24.92,23.35-12.6,7.28-25.11,9.4-37.51,6.37-12.4-3.03-21.92-10.29-28.56-21.78-7.27-12.58-8.97-24.61-5.1-36.08s11.72-21.69,23.56-30.67l33.78-25.58ZM1344.3,1508.53c7.01,1.01,13.82-.38,20.41-4.19,8.03-4.64,14.74-10.99,20.12-19.05,9.13-13.49,9.64-27.24,1.55-41.26l-10.6-18.37c-1.76,3.39-4.49,6.95-8.19,10.67-3.7,3.72-7.52,7.06-11.45,10l-12.78,9.74c-7.64,5.87-12.86,11.2-15.66,15.96-4.77,8.04-4.65,16.41.37,25.1,3.8,6.58,9.21,10.38,16.22,11.39Z"/>
    <path class="cls-4" d="M1408.93,1318.3l22.33-12.89,10.4,18.01c1.02-8.82,3.26-16.48,6.73-23,4.79-9.53,12.39-17.3,22.82-23.33,15.43-8.91,31.94-10.57,49.52-4.99,17.58,5.58,32.69,19.32,45.34,41.23,17.09,29.6,21.53,55.23,13.31,76.89-5.21,13.72-14.36,24.36-27.43,31.9-10.27,5.93-20.19,8.67-29.73,8.2-5.54-.18-12.6-1.92-21.17-5.2l40.06,69.39-22.84,13.18-109.35-189.4ZM1556.33,1375.19c1.93-13.01-2.23-28.4-12.48-46.16-6.25-10.82-13.19-19.22-20.82-25.19-14.58-11.54-29.77-12.75-45.55-3.64-15.87,9.16-22.17,23.34-18.89,42.54,1.74,10.27,6.37,21.92,13.89,34.94,6.05,10.49,12.78,18.5,20.16,24.05,14.04,10.61,28.96,11.36,44.75,2.24,10.69-6.17,17.01-15.77,18.94-28.78Z"/>
    <path class="cls-4" d="M1635.35,1311.05c5.08,7.21,10.39,11.93,15.93,14.14,10.12,3.97,22.43,1.77,36.93-6.61,8.63-4.98,15.16-11.21,19.6-18.67,4.44-7.47,4.43-15.05,0-22.74-3.37-5.84-8.55-8.76-15.55-8.78-4.43.08-12.29,1.74-23.59,4.99l-21.07,6.08c-13.44,3.92-23.97,5.72-31.61,5.39-13.54-.42-23.45-6.08-29.75-16.99-7.42-12.85-8.74-25.97-3.94-39.33,4.79-13.37,15.12-24.63,30.98-33.78,20.74-11.98,39.16-14.6,55.27-7.89,10.14,4.3,17.66,10.89,22.57,19.78l-21.57,12.45c-3.39-4.88-7.95-8.47-13.67-10.78-8.81-2.87-19.85-.48-33.09,7.16-8.83,5.1-14.57,10.6-17.22,16.51-2.65,5.91-2.41,11.56.7,16.95,3.41,5.9,9.12,8.9,17.13,8.99,4.66.12,10.82-.96,18.47-3.24l17.51-5.2c19.01-5.67,32.43-8.29,40.27-7.86,12.25.71,21.99,7.32,29.21,19.84,6.98,12.1,8.37,25.22,4.15,39.38s-15.82,26.73-34.83,37.7c-20.46,11.81-37.6,15.59-51.42,11.34-13.82-4.26-24.93-12.98-33.34-26.16l21.95-12.67Z"/>
  </g>
</svg>